<?xml version="1.0" encoding="UTF-8"?>
<!DOCTYPE svg PUBLIC "-//W3C//DTD SVG 1.1//EN" "http://www.w3.org/Graphics/SVG/1.1/DTD/svg11.dtd">
<!-- Creator: CorelDRAW -->
<svg xmlns="http://www.w3.org/2000/svg" xml:space="preserve" width="40mm" height="40mm" version="1.1" style="shape-rendering:geometricPrecision; text-rendering:geometricPrecision; image-rendering:optimizeQuality; fill-rule:evenodd; clip-rule:evenodd"
viewBox="0 0 3986.84 3986.84"
 xmlns:xlink="http://www.w3.org/1999/xlink">
 <defs>
  <style type="text/css">
   <![CDATA[
    .fil0 {fill:none}
    .fil1 {fill:darkgray}
    .fil2 {fill:darkgray;fill-rule:nonzero}
   ]]>
  </style>
 </defs>
 <g id="Layer_x0020_1">
  <metadata id="CorelCorpID_0Corel-Layer"/>
  <rect class="fil0" width="3986.84" height="3986.84"/>
  <g id="_106102977072224">
   <path class="fil1" d="M2102.15 804.9c-5.12,24.69 -5.12,37.72 11.43,61 4.79,6.75 10.76,13.28 17.74,17.72 35.56,22.66 71.27,14.95 96.47,-16.47 22.01,-27.42 22.36,-46.29 64.41,-85.8 20.7,-19.45 41.62,-27.94 73.85,-26.65 19.39,0.78 44.39,5.79 62.66,13.73 54.89,23.9 80.3,89.99 54.21,137.08 -20.53,37.06 -52.77,48.74 -77.94,65.16 -25.07,16.37 -73.58,40.44 -96.78,58.81 -41.6,32.93 -68.78,62.81 -82.34,128.08 -6.89,33.14 1.3,56.21 20.95,72.69 18.08,15.17 54.74,22.43 77.97,8.5 44.17,-26.48 18.03,-70.66 93.88,-120.42l92.32 -55.68c19.8,-13.2 52.6,-28.84 73.7,-51.76 36.27,-39.38 43.64,-46.04 56.47,-107.82 8.55,-41.2 -2.19,-93.81 -23.81,-129.53 -9.99,-16.51 -8.47,-15.84 -23.3,-33.64 -36.72,-44.07 -92.25,-74.97 -151.9,-90.9l-40.55 -8.42c-33.19,-4.98 -66.64,-5.37 -97.94,-0.88 -87.17,12.53 -183.75,79.75 -201.51,165.19z"/>
   <path class="fil1" d="M2171.46 1353.08c-5.42,26.08 -2.26,45.14 10.65,64.78 11.16,16.98 27.47,28.11 45.08,33.47l15.42 3.21c19.75,2.26 39.74,-2.34 54.92,-13.69 35.8,-26.78 45.41,-72 22.69,-110.33l-19.39 -21.53c-43.67,-35.37 -117.55,-12.83 -129.37,44.09z"/>
  </g>
  <g id="_106102977074112">
   <path class="fil1" d="M1780.55 1918l0 0zm135.42 -410.98l49.34 0c7.34,0.22 14.25,0.65 20.28,1.47l182.84 25.7c6.2,1.22 8.73,2.41 14.3,3.92 58.69,15.78 141.71,34.01 183.48,75.66 10.37,10.33 24.83,30.82 9.18,46.75 -38.54,39.28 -45.65,9.34 -28.69,63.87 2.28,7.35 3.78,8.7 5.96,16.31 2.07,7.18 2.53,9.62 4.84,15.4 25.72,63.97 23.52,58.7 92.38,75.67 12.56,3.09 20.73,6.12 32.46,10.06 10.03,3.36 22.02,5.69 22.99,17.49 -14.83,7.12 -64.84,-3.22 -127.55,38.45 -41.61,27.66 -63.2,47.73 -96.69,83.5l-58.56 87.21c-51.88,103 -74.86,241.67 -38.17,352.72 10.95,33.15 28.24,53.93 43.61,85.98 -11.29,-0.26 -37.72,-12.76 -47.23,-17.56l-85.7 -39.82c-34.47,-17.36 -73.28,-30.76 -104.24,-53.67 -3.38,-2.5 -5,-4.12 -8.99,-7.22 -20.75,-16.11 -31.65,-44.95 -41.05,-68.26 -3.24,-8.02 -4.73,-13.89 -7.61,-22.75 -20.82,-63.92 -21,-156.15 -7.01,-226.16 8.07,-40.36 17.14,-60.08 33.24,-92.29l45.89 -79.64c-6.95,4.65 -5.6,5.4 -10.72,11.54 -9.65,11.58 -21.01,22.68 -29.14,35.64 -67.32,107.39 -89.16,213.47 -63.59,341.74 4.33,21.71 11.48,46.86 19.75,65.27 7.1,15.82 24.66,44.91 24.99,60.04l-25.48 8.93c-32.68,12.39 -155.81,49.79 -185.08,49.79 -9.83,-14.69 -10.17,-50.48 -10.12,-70.87 0.05,-25.99 -0.84,-53.2 -0.07,-79.02 1.12,-37.27 6.1,-204.92 11.4,-225.48 4.16,-16.14 15.97,-24.1 28.75,-31.99 4.9,-3.02 6.97,-3.14 11.05,-7.17 1.89,-1.85 7.05,-8.86 8.77,-11.48 3.49,-5.31 3.93,-7.73 6.17,-14.07 7.22,-20.45 10.77,-44.99 6.87,-68.15 -1.14,-6.72 -1.87,-10.75 -4.11,-16.15l-5.34 -10.85c-0.1,-0.7 -0.45,-0.89 -0.73,-1.3 0,25.5 1.19,53.88 0.03,79 -2.27,49.58 -55.29,37.67 -63.18,94.73 -3.11,22.44 -3.76,48.98 -3.66,75.3 0.06,16.05 -2.13,23.8 -2.07,38.41 0.26,64.28 4.19,258.05 -5.41,308.4 -7.45,39 -42.19,38.16 -74.4,43.12 -6.74,1.04 -28.34,-0.56 -37.31,-1.48 -46.19,-4.7 -105.91,-29.76 -147.38,-49l-52.63 -26.33c-18.02,-8.91 -33.88,-18.03 -50.08,-28.87 -8.61,-5.77 -14.31,-10.08 -22.68,-15.8 -30.4,-20.78 -37.47,-34.85 -42.71,-74.7 -3.43,-26.07 -5.22,-43.99 -6.68,-72.28l-2.58 -37.91c-3.92,-28.64 -11.49,-234.28 -11.53,-263.81 -0.02,-13.68 -2.13,-22.51 -2.09,-38.4 0.03,-12.78 0.24,-25.79 0.08,-38.54 -0.15,-12.21 -2.02,-20.68 -2.1,-35.07l0 -27.87c1.29,-5.91 4.92,-10.92 14.17,-17.96 4.58,-3.49 6.33,-5.22 10.63,-9.62 34.76,-35.48 84.6,-50.58 131.34,-65.05 18.05,-5.58 43.32,-10.93 58.5,-18.43 17.57,-8.67 12.97,-3.18 19.85,-20.64 4.37,-11.07 13.93,-9.9 28.68,-9.8 13.51,0.1 27.12,-0.22 40.6,-0.05 12.57,0.16 21.28,2.23 36.43,2.17 23.55,-0.08 49.86,-5.47 66.77,-12.19 10.4,-4.13 47.79,-16.27 42.49,-34.45 -4.63,-15.89 -51.16,-15.84 -66.81,-26.31 0,-22.08 6.69,-35.4 19.03,-51.83 21.48,-28.62 58.62,-36.25 89.6,-50.09l47.51 -21.32c32.82,-13.39 69.29,-22.35 114.92,-22.53zm89.31 392.76l0 0zm-285.47 4.05c8.99,-0.75 17.2,-7.82 29.6,8.87 13.8,18.59 9.88,27.64 -4.69,42.35 -32.7,33.03 -103.47,10.72 -139.67,-7.32 -13.89,-6.93 -37.08,-22.41 -37.08,-39.85 0,-19.89 96.37,-24.3 117.42,-24.3 6.41,0 6.91,4.98 8.1,10.13 13.53,0 18.65,-2.02 30.37,-2.02 -2.55,9.53 -4.06,2.23 -4.06,12.14zm60.74 14.17c-7.43,-4.96 -12.5,-12.85 -17.82,-20.64 -4.6,-6.76 -12.47,-16.01 -14.57,-23.9 8.26,5.54 29.83,33.54 32.39,44.54zm447.43 -244.97c-14.87,0 -77.29,1.19 -87.73,-1.36 -4.18,-1.02 -10.04,-1.49 -10.13,-9.11 0,-0.23 -0.14,-0.98 -0.12,-1.26 2.56,-37.46 118.37,-43 146.57,-42.94 21.28,0.03 54.18,-5.06 75.81,1.12 22.81,6.51 58.04,53.54 -124.4,53.54z"/>
   <path class="fil1" d="M2448.67 2009.11c68.61,0 103.25,67.62 103.25,131.6 0,86.79 -33.56,182.74 -97.45,230.54 -47.07,35.22 -103.81,44.51 -153,7.75 -3.71,-2.77 -4.38,-3.53 -8.74,-5.72 -3.34,-1.67 -0.8,-0.82 -3.91,-1.67 -7.09,-1.96 -8.6,0.79 -7.62,9.08 2.68,22.83 33.81,84.18 67.59,102.84 53.84,29.74 117.87,6.34 164.28,-23.32l46.18 -36.83c0.3,-0.29 0.73,-0.71 1.04,-1l5.07 -5.03c29.16,-30.07 58.43,-71.74 71.85,-112.4 5.4,-16.38 12.74,-33.86 15.99,-52.85 9.94,-58.11 13.76,-119.07 -2.89,-177.38 -7.58,-26.52 -22.88,-61.44 -39.33,-82.15 -5.36,-6.75 -13.59,-13.91 -20.05,-20.43 -12.28,-12.39 -40.4,-25.78 -55.2,-25.78 -14.15,0 -38.02,7.88 -48.61,12.12 -15.54,6.23 -27.01,11.48 -41.84,18.9l-27.58 16.96c-37.56,29.38 24.22,14.78 30.98,14.78z"/>
   <path class="fil1" d="M2472.96 2165.01c0,-37.57 2.03,-32.29 -4.86,-68.03 -2.29,-11.86 -5.08,-18.67 -9,-27.44 -8.32,-18.64 -22.71,-34.12 -44.84,-34.12 -32.56,0 -69.95,56.9 -83.41,84.63 -1.84,3.79 -2.67,4.54 -4.99,9.18 -25.72,51.44 -45.48,140.17 -33.37,196.01 2.5,11.54 12.73,26.22 20.82,31.82 23.95,16.55 54.1,3.68 75.82,-12.71 19.7,-14.87 35.88,-35.28 48.58,-56.7 6.53,-11.01 12.36,-23.7 17.08,-35.55 7.24,-18.14 18.18,-62.27 18.18,-87.09z"/>
   <path class="fil1" d="M2213.81 2258.13c0,86.4 0.44,138.08 44.4,206.65 13.33,20.79 41.79,49.26 62.87,64.72 7.59,5.57 27.73,13.67 4.94,-11.05l-23.75 -28.89c-69.21,-93.52 -64.97,-235.04 -24.86,-339.9 15.82,-41.33 44.77,-94.74 73.57,-126.85 4.41,-4.9 6.63,-6.44 10.61,-11.66 6.33,-8.28 13.99,-15.94 22.28,-22.27 35.34,-27.07 34.62,-30.35 80.3,-53.32 11.84,-5.95 18.82,-8.01 31.62,-12.92 40.45,-15.51 61.9,-1.22 72.31,-16.77 -17.03,-23.24 -109.44,-1.57 -137,10.8 -17.94,8.06 -38.8,18.85 -53.79,31.24 -67.9,56.09 -111.87,113.1 -141.51,202.66 -10.05,30.36 -22,73.77 -22,107.58z"/>
   <path class="fil1" d="M2687.57 2140.71c0,52.19 -2.66,78.04 -16.61,129.17 -2.28,8.39 -6.38,22.59 -9.68,30.81 -26.35,65.52 -51.51,112.95 -103.78,159.41 -4.21,3.74 -5.66,6.22 -10.46,9.8 -85.23,63.62 -133.61,37.23 -146.97,55.48 8.2,11.19 39.24,10.13 56.68,10.13 55.37,0 91.55,-26.92 127.56,-54.66 64.79,-49.93 133.61,-179.13 133.61,-273.33 0,-62.54 -1.04,-134.25 -36,-186.69 -14.07,-21.1 -30.36,-41.19 -49.6,-57.73 -4.15,-3.57 -19.71,-15.31 -14.46,-0.21 1.73,4.97 11.96,15.48 15.51,19.43 32.66,36.32 54.19,104.7 54.19,158.4z"/>
   <path class="fil1" d="M1507.24 1697.33c17.26,25.77 113.09,12.94 135.33,9.81 33.24,-4.67 48.26,-16.49 63.08,-19.93 -10.49,-14.3 -56.12,-18.23 -71.17,-19.95 -14.24,-1.64 -120.46,4.65 -127.25,30.08z"/>
   <path class="fil1" d="M1687.42 1948.37c-16.63,0 -25.03,-2.48 -36.44,-10.13 0.64,7.67 5.63,13.61 10.84,17.5 26.61,19.88 82.29,6.22 82.29,-31.67 -8.25,0.68 -7.8,2.21 -12.51,7.73 -10.66,12.51 -26.06,16.56 -44.18,16.56z"/>
  </g>
  <path class="fil2" d="M1279.65 2961.24c0,12.04 -6.8,18.22 -20.68,18.22 -12.66,0 -18.84,-6.18 -18.84,-18.22 0,-10.8 6.8,-16.05 20.38,-16.05 12.65,0 19.14,5.24 19.14,16.05zm-7.1 -95.08c0,0.62 0,2.77 -0.31,6.17 -0.31,3.4 -0.93,8.33 -1.54,14.2 -0.93,6.48 -1.54,13.28 -2.16,20.37 -0.62,6.79 -1.24,13.59 -1.85,20.37l-14.2 0 -6.48 -61.12 0 -58.66 26.55 0 0 58.66z"/>
  <path id="1" class="fil2" d="M1393.09 2963.09c0,4.94 -2.15,8.95 -6.17,12.04 -3.4,2.78 -7.71,4.33 -12.66,4.33 -4.63,0 -8.64,-1.54 -12.04,-4.63 -3.4,-3.09 -5.24,-7.1 -5.24,-11.73 0,-9.88 6.17,-14.82 18.21,-14.82 12.04,0 17.9,4.94 17.9,14.82zm4.63 -99.09c0,-21.92 -7.71,-32.72 -23.15,-32.72 -14.82,0 -22.23,6.79 -22.23,20.06 0,4.62 1.24,8.33 3.71,11.11l12.96 14.51c4.02,4.32 7.42,8.33 10.2,11.73 2.46,3.39 4.01,6.48 4.93,8.64 1.24,3.09 2.16,7.41 3.09,12.66 0.62,5.24 1.24,11.73 1.54,19.45l-25.63 0c0,-5.24 -0.31,-9.88 -0.93,-14.2 -0.93,-4.32 -1.85,-8.02 -3.4,-11.11 -1.24,-2.16 -3.08,-4.32 -5.24,-7.1 -2.16,-2.78 -5.25,-5.56 -8.64,-8.64 -3.71,-3.71 -6.8,-6.8 -9.27,-9.58 -2.46,-2.77 -4.32,-5.24 -5.24,-7.41 -1.85,-2.78 -3.4,-6.17 -4.33,-9.57 -0.93,-3.4 -1.54,-7.1 -1.54,-11.11 0,-14.51 4.94,-25.32 14.51,-33.03 9.26,-7.11 21.3,-10.5 35.81,-10.5 9.88,0 19.14,2.47 27.48,7.41l0 0c9.26,5.25 15.43,12.35 18.21,21.61 0.93,2.78 1.85,6.8 2.47,11.42 0.62,4.63 0.93,10.19 1.24,16.37l-26.55 0z"/>
  <path id="2" class="fil2" d="M1795.45 2979.46c-5.24,-0.31 -9.57,-0.31 -13.28,-0.62 -3.39,-0.31 -6.17,-0.93 -7.71,-1.54 -3.4,-0.93 -6.48,-2.16 -9.26,-4.33 -2.78,-1.85 -4.94,-4.32 -6.8,-7.71 -8.33,11.42 -19.45,17.28 -33.65,17.28 -6.48,0 -12.97,-1.53 -18.83,-4.93 -5.86,-3.09 -11.42,-7.71 -16.67,-13.59 -4.62,6.17 -9.88,10.8 -15.43,14.2 -5.87,3.39 -12.04,4.93 -18.53,4.93 -9.57,0 -18.52,-3.7 -26.85,-11.42 -0.31,21 -5.87,38.59 -16.67,52.49 -12.35,15.43 -28.71,23.15 -49.39,23.15l-41.99 0c-18.83,0 -34.88,-6.8 -47.85,-20.37 -12.04,-13.28 -18.21,-29.95 -18.21,-49.4l0 -55.57 27.17 0 0 56.8c0,12.04 4.01,22.23 12.04,29.94 8.02,7.71 18.21,11.42 30.25,11.42l34.88 0c12.66,0 22.84,-3.71 30.87,-11.42 8.02,-7.71 12.04,-17.59 12.04,-29.94l0 -83.97 26.86 0 0 39.83c0,3.08 0.62,5.86 1.85,8.64 1.24,2.78 2.77,4.93 4.93,7.1 4.63,4.02 9.88,6.18 16.37,6.18 12.04,0 17.9,-5.56 17.9,-16.67l0 -45.07 26.55 0 0 39.52c0,3.08 0.62,5.86 1.85,8.64 1.24,2.78 3.08,4.93 5.24,7.1 4.63,4.33 10.19,6.49 16.06,6.49 12.35,0 18.52,-5.56 18.52,-16.67l0 -45.07 26.55 0 0 41.67c0,5.87 3.09,10.51 9.57,13.28 2.16,0.93 9.26,1.85 21.61,2.78l0 26.86z"/>
  <path id="3" class="fil2" d="M1951.71 2979.46c-11.42,0 -20.99,-1.54 -29.33,-4.94 -8.02,-3.4 -14.5,-8.02 -19.45,-14.51 -5.24,12.97 -17.59,19.46 -37.05,19.46l-79.65 0 0 -26.86 79.96 0c7.11,0 10.5,-4.63 10.5,-13.59 0,-3.39 -0.92,-5.86 -2.77,-8.02l-69.77 -73.48 -5.25 -29.94 99.1 -35.5 3.39 26.55 -69.77 26.23c12.35,13.28 24.7,26.86 37.36,40.76 12.35,13.89 24.7,27.47 37.05,40.75 4.02,4.63 7.41,8.34 10.8,11.73 3.4,3.09 6.17,5.56 8.33,7.42 7.42,4.32 16.37,6.79 26.55,7.1l0 26.86z"/>
  <path id="4" class="fil2" d="M2077.16 2979.46l-134.61 0 0 -26.86 37.67 0c-2.78,-6.48 -4.62,-12.35 -6.17,-18.21 -1.54,-5.87 -2.16,-11.11 -2.16,-15.75 0,-10.5 3.09,-19.75 8.95,-27.48 5.87,-8.02 13.89,-13.58 23.46,-16.36 6.48,-1.85 14.2,-2.78 22.54,-2.78 14.51,0 28.41,6.49 41.67,19.75l-13.58 21.61c-14.51,-10.8 -26.24,-16.36 -35.81,-16.36 -13.89,0 -20.99,8.64 -20.99,25.63 0,7.1 1.84,13.88 5.24,20.06 3.71,6.48 9.26,9.88 16.37,9.88l53.4 0 4.02 26.86z"/>
  <path id="5" class="fil2" d="M2264.49 2889.01c0,5.24 -1.84,9.88 -5.55,13.27 -3.71,3.4 -8.02,5.25 -13.28,5.25 -13.28,0 -20.06,-6.17 -20.06,-18.52 0,-10.8 6.48,-16.06 19.14,-16.06 13.28,0 19.75,5.25 19.75,16.06zm75.64 85.82c0,21.3 -5.87,38.59 -17.91,52.18 -12.35,13.58 -28.71,20.37 -49.39,20.37l-41.68 0c-8.95,0 -17.28,-1.85 -25,-5.25 -7.72,-3.4 -14.51,-8.33 -20.69,-15.43 -12.35,-13.89 -18.52,-29.95 -18.52,-48.47l0 -56.18 26.55 0 0 59.27c0,5.55 1.24,10.5 3.39,15.12 2.16,4.63 5.56,8.95 10.19,12.97 4.02,3.4 8.65,6.18 13.89,8.02 4.94,1.85 10.19,2.78 15.75,2.78l34.58 0c5.55,0 10.8,-0.93 15.74,-2.78 4.94,-2.15 9.58,-4.93 13.59,-8.33 4.02,-3.71 6.8,-8.02 8.96,-12.66 2.15,-4.62 3.39,-9.57 3.39,-15.12l0 -86.44 27.17 0 0 79.96z"/>
  <path id="6" class="fil2" d="M2444.31 2924.81c0,-17.28 -6.79,-25.92 -20.68,-25.92 -8.33,0 -14.2,2.77 -17.29,8.64 -0.92,2.16 -1.53,4.94 -1.84,8.33 -0.31,3.71 -0.62,7.72 -0.62,12.35 0,11.11 4.32,18.22 12.97,21.61 2.15,0.93 5.86,1.54 10.8,1.85 5.24,0.62 10.8,0.93 16.67,0.93l0 -27.79zm27.48 58.35c0,8.96 -1.85,17.29 -5.25,25.01 -3.4,7.42 -8.64,14.2 -15.12,20.37 -6.49,5.87 -13.89,10.5 -21.93,13.89 -8.02,3.4 -16.36,4.94 -25,4.94l-34.88 0 -3.71 -27.17 33.96 0c12.66,0 22.84,-3.71 31.18,-11.11 8.03,-7.1 12.35,-16.97 13.28,-29.63 -10.19,-0.31 -19.45,-0.93 -28.09,-2.47 -8.65,-1.54 -15.44,-3.71 -20.07,-6.49 -6.79,-4.01 -11.73,-9.57 -15.12,-16.67 -3.4,-7.1 -5.25,-16.06 -5.25,-26.24 0,-22.54 5.25,-38.27 15.75,-47.23 6.48,-5.55 17.59,-8.33 32.72,-8.33 10.5,0 19.14,2.16 25.93,6.49 6.79,4.32 11.73,10.8 15.12,19.14 2.16,5.24 3.71,12.35 4.63,20.99 1.24,8.33 1.85,18.52 1.85,29.94l0 34.58z"/>
  <path id="7" class="fil2" d="M2666.64 2979.46l-12.04 0c-5.24,0 -10.5,-1.54 -16.05,-4.63 -5.56,-3.09 -11.42,-7.71 -17.91,-13.59 -4.01,5.87 -9.26,10.5 -15.12,13.59 -5.87,3.09 -12.66,4.63 -20.38,4.63l-83.04 0 -4.33 -26.86 85.52 0c9.57,0 14.19,-3.4 14.19,-9.88 0,-4.02 -1.24,-7.41 -4.01,-10.19l-60.2 -63.91 18.52 -18.52 80.88 85.21c3.4,4.01 6.49,6.79 8.64,8.95 2.16,2.16 4.02,3.39 5.25,4.32 4.63,2.78 11.11,4.02 20.06,4.02l0 26.86z"/>
  <path id="8" class="fil2" d="M2715.47 3021.13c0,5.25 -1.85,9.57 -5.24,12.97 -1.85,1.85 -4.02,3.09 -6.18,4.02 -2.15,0.92 -4.62,1.53 -7.41,1.53 -13.59,0 -20.37,-6.17 -20.37,-18.52 0,-10.8 6.48,-16.06 19.14,-16.06 13.28,0 20.06,5.25 20.06,16.06zm24.7 -85.21c0,11.42 -3.71,21.31 -10.8,29.95 -7.1,8.95 -16.67,13.59 -28.09,13.59l-43.85 0 0 -26.86c28.1,0 43.85,-0.62 46.93,-1.85 5.87,-2.16 8.65,-10.19 8.65,-24.08 0,-1.24 0,-2.46 0,-4.01 0,-1.54 0,-3.09 0,-5.25 0,-0.93 0,-1.85 -0.31,-2.78 0,-0.93 0,-2.15 0,-3.39 0,-2.78 0,-5.87 0,-9.27 0,-3.08 0,-5.55 0,-7.1l27.47 0 0 41.05z"/>
 </g>
</svg>
