<?xml version="1.0" encoding="UTF-8"?>
<!DOCTYPE svg PUBLIC "-//W3C//DTD SVG 1.1//EN" "http://www.w3.org/Graphics/SVG/1.1/DTD/svg11.dtd">
<!-- Creator: CorelDRAW 2018 (64-Bit Evaluation Version) -->
<svg xmlns="http://www.w3.org/2000/svg" xml:space="preserve" width="210mm" height="297mm" version="1.1" style="shape-rendering:geometricPrecision; text-rendering:geometricPrecision; image-rendering:optimizeQuality; fill-rule:evenodd; clip-rule:evenodd"
viewBox="0 0 21000 29700"
 xmlns:xlink="http://www.w3.org/1999/xlink">
 <defs>
  <style type="text/css">
   <![CDATA[
    .fil2 {fill:#EBECEC}
    .fil0 {fill:#00B9DD}
    .fil1 {fill:#3E4E55}
    .fil4 {fill:#00B9DD;fill-rule:nonzero}
    .fil3 {fill:#3E4E55;fill-rule:nonzero}
   ]]>
  </style>
 </defs>
 <g id="Layer_x0020_1">
  <metadata id="CorelCorpID_0Corel-Layer"/>
  <g id="_2261308053072">
   <path class="fil0" d="M13506.15 12870.02c-976.82,1656.83 -504.41,2838.53 306.45,3964.15 748.32,1038.68 1567.71,2079.5 1988.32,3162.56 1533.06,3947.16 -3792.34,7010.22 -6576.67,4353.46 -876.29,-836.15 -1460.72,-1919.67 -1689.43,-3111.47 -842.68,-4390.82 1383.66,-7309.43 3742.89,-10525.11 1796.81,-2448.99 3652.63,-4666.95 2791.96,-7115.29 4417.47,3629.62 -1574.44,8527.56 -3400.01,11566.47 -5624.53,9362.5 2439.71,11745.81 3884.16,7944.48 297.92,-784.06 202.24,-1713.69 -484.15,-2480.7 -981.99,-983.46 -1617.61,-1857.53 -2027.59,-2660.29 -983.88,-1926.85 -209.05,-4154.33 1464.07,-5098.26z"/>
   <path class="fil1" d="M16113.64 9169.34c-1.46,1.28 -2.89,2.64 -4.31,3.92 -56.48,39.68 -107.1,87.12 -150.34,140.71 -1846.36,1807.58 -2111.25,5293.54 -956.45,7531.04 1191.62,2308.89 3311.72,3965.61 1497.32,6918.83 -723.67,1177.81 -1954.64,1858.6 -3367.3,2288.16 4377.41,-399.06 7105.02,-5409.37 5460.18,-9297.21 -1206.53,-2851.83 -4157.32,-3874.03 -2797.18,-6961.71 8.49,400.17 335.46,722 737.73,722 407.52,0 737.87,-330.36 737.87,-737.87 0,-407.52 -330.35,-737.87 -737.87,-737.87 -156.33,0 -301.28,48.63 -420.57,131.53l0.92 -1.53z"/>
   <path class="fil2" d="M10579.51 26096.31c-4783.28,115.59 -4457.82,-1680.01 -6422.19,-1794.38 -837.58,-48.77 -1530.79,386.71 -2181.46,1395.93 -178.2,-1529.61 91.29,-2655.51 882.63,-3395.24 566.2,-529.27 1254.77,-782.03 1936.09,-782.14 1444.13,-0.18 2001.34,735.16 2493.51,1577.84 754.28,1291.55 1738.48,2659.22 3291.42,2997.99z"/>
   <path class="fil2" d="M6742.58 19780.07c-378.76,-8450.82 7938.39,-10802.8 5899.06,-15610.34 -92.76,-301.46 -373.45,-520.61 -705.34,-520.61 -407.51,0 -737.93,330.39 -737.93,737.9 0,407.52 330.42,737.87 737.93,737.87 203.1,0 387.04,-82.09 520.47,-214.87 -1088.13,3399.23 -7162.88,7117.29 -5714.19,14870.05z"/>
   <path class="fil1" d="M13176.87 19971.93c-1090.05,-686.99 -1758.28,-1969.33 -1903.73,-3010.54 -3023.5,3419.88 -623.06,7324.59 1431.46,5091.37 -1954.85,1576.37 -3674,-2420.24 472.27,-2080.83z"/>
  </g>
  <path class="fil3" d="M24226.27 12782.6c0,194.94 -71.78,317.04 -215.29,366.31 -34.29,11.79 -70.7,17.68 -109.26,17.68 -62.13,0 -122.11,-15 -179.94,-44.99l0 -94.79c54.62,29.99 110.32,44.99 167.09,44.99 44.99,0 84.61,-10.18 118.89,-30.53 74.98,-44.99 112.46,-129.07 112.46,-252.24l0 -560.72 106.05 -56.23 0 610.52zm549.13 77.12c-91.04,0 -161.19,-29.45 -210.46,-88.36 -40.7,-50.35 -61.06,-114.08 -61.06,-191.19l0 -700.49 107.64 -56.24 0 753.51c0,122.11 58.91,183.16 176.74,183.16l56.22 0 0 99.61 -69.08 0zm25.39 0l0 -99.61 218.51 0 0 99.61 -218.51 0zm174.79 0l0 -99.61 218.51 0 0 99.61 -218.51 0zm174.81 0l0 -99.61 218.51 0 0 99.61 -218.51 0zm174.8 0l0 -99.61 218.5 0 0 99.61 -218.5 0zm174.79 0l0 -99.61 218.52 0 0 99.61 -218.52 0zm1027.92 -99.61l40.18 0 0 99.61 -53.02 0c-96.4,0 -168.69,-32.67 -216.89,-98 -48.2,65.33 -121.05,98 -218.52,98l-404.86 0 0 -99.61 393.63 0c116.74,0 175.11,-62.66 175.11,-187.98l0 -16.06c0,-87.83 -32.13,-153.7 -96.4,-197.62 -51.41,-36.42 -115.66,-54.62 -192.79,-54.62 -57.83,0 -115.13,10.17 -171.9,30.52l0 -106.04 364.69 -404.87 110.86 0 -329.36 372.74c10.71,-1.07 21.96,-1.6 33.74,-1.6 102.82,0 188.51,26.24 257.07,78.72 87.82,67.48 131.73,161.2 131.73,281.16l0 22.49c0,122.11 58.91,183.16 176.73,183.16zm276.03 -800.1c-43.93,0 -65.88,-22.5 -65.88,-67.48 0,-42.84 21.95,-64.27 65.88,-64.27 41.76,0 62.66,21.43 62.66,64.27 0,44.98 -20.9,67.48 -62.66,67.48zm-279.56 899.71l0 -99.61 56.24 0c117.81,0 176.72,-61.05 176.72,-183.16l0 -348.64 107.64 -56.23 0 408.09c0,89.97 -26.24,160.12 -78.73,210.46 -48.19,46.06 -112.45,69.09 -192.79,69.09l-69.08 0z"/>
  <path class="fil0" d="M26355.34 12628.86c-7.6,55.8 -26.01,101.37 -53.63,137.53 48.17,62.22 119.28,93.33 213.35,93.33l53.02 0 0 -99.61 -40.18 0 0 0c-99.74,0 -157.25,-43.75 -172.56,-131.25z"/>
  <path class="fil0" d="M26803.93 11960.01c-43.93,0 -65.88,-22.5 -65.88,-67.48 0,-42.84 21.95,-64.27 65.88,-64.27 41.76,0 62.66,21.43 62.66,64.27 0,44.98 -20.9,67.48 -62.66,67.48zm-279.56 899.71l0 -99.61 56.24 0c117.81,0 176.72,-61.05 176.72,-183.16l0 -348.64 107.64 -56.23 0 408.09c0,89.97 -26.24,160.12 -78.73,210.46 -48.19,46.06 -112.45,69.09 -192.79,69.09l-69.08 0z"/>
  <polygon class="fil3" points="25626.07,12201.44 25948.63,11832.19 26052.42,11832.19 25730.34,12201.44 "/>
  <path class="fil1" d="M24930.28 11119.75c-10.41,8.31 -22.56,14.42 -35.22,18.95 -23.87,8.52 -48.99,14.05 -74.04,17.76 -29.43,4.36 -59.23,6.66 -88.98,7.61 -30.65,0.97 -61.28,2.44 -91.87,4.48 -29.02,1.93 -57.89,5.57 -86.44,11.08 -25.66,4.95 -50.04,14.02 -71.9,28.43 -21.34,14.06 -37.29,33.22 -48.86,55.93 -14.48,28.39 -18.33,63.46 -18.33,94.9 0,21.12 3.69,41.79 10.65,61.73 7.16,20.55 19.36,37.96 35.38,52.64 18.9,17.33 42.29,29.54 66.23,38.36 31.87,11.74 68.29,15.09 102.06,15.09 44.24,0 88.46,-6.84 129.22,-24.61 35.48,-15.46 67.9,-36.43 94.83,-64.37 25.55,-26.51 44.77,-57.12 57.69,-91.59 12.96,-34.54 19.58,-70.38 19.58,-107.26l0 -119.13zm-711.03 18.63c0,-42.8 -6.11,-84.94 -18.32,-125.96 -11.63,-39.1 -29.2,-75.73 -53.78,-108.36 -23.86,-31.64 -53.66,-56.51 -88.71,-74.99 -38.01,-20.03 -79.81,-28.01 -122.52,-28.01 -43.6,0 -87.18,7.23 -126.52,26.64 -35.65,17.59 -66.13,41.76 -90.88,72.83 -25.48,31.98 -43.48,68.27 -55.11,107.4 -12.63,42.4 -18.31,86.25 -18.31,130.45 0,44.1 5.39,88.13 18.28,130.39 11.49,37.69 28.88,72.88 53.62,103.68 23.75,29.57 52.97,52.49 87.09,69.08 37.41,18.18 78.48,25.17 119.82,25.17 43.83,0 87.61,-7.1 127.43,-25.97 35.44,-16.78 66.44,-39.81 91.64,-69.95 25.78,-30.83 44.13,-66.32 56.54,-104.45 13.47,-41.44 19.73,-84.41 19.73,-127.95zm-735.15 -9.19c-0.9,-40.86 -6.94,-81.26 -18.92,-120.44 -12.03,-39.32 -30.22,-75.99 -55.89,-108.22 -24.89,-31.22 -55.69,-55.32 -91.59,-72.8 -39.69,-19.33 -83.42,-26.67 -127.32,-26.67 -39.31,0 -77.43,7.31 -113.46,23.1 -35.58,15.6 -66.33,38.25 -92.35,67.12 -28.24,31.32 -49.28,67.91 -64.76,107.03 -16.51,41.74 -25.16,86.2 -28.53,130.88l592.82 0zm1701.57 -216.17c4.74,-10.71 10.11,-21.16 16.09,-31.32 16.13,-27.41 37.45,-50.62 62.75,-69.84 27.73,-21.08 59.36,-36.13 92.48,-46.68 39.79,-12.69 82.64,-16.41 124.23,-15.51l10.46 0.23 0 51.78 -11.3 -0.64c-44.8,-2.54 -90.99,2.07 -132.22,20.81 -35.55,16.16 -66.63,38.8 -91.42,69.05 -24.76,30.21 -42.3,64.66 -53.53,102.04 -11.7,39.04 -17.54,79.18 -17.54,119.94l0 447.21 -51.39 0 0 -792.42 51.39 0 0 145.35zm-255.39 505.53c-6.47,11.78 -13.87,23.06 -22.06,33.82 -19.07,25.07 -42.48,46.2 -68.5,63.87 -28.75,19.52 -60.46,33.89 -93.6,44.12 -36.99,11.42 -75.53,16.23 -114.17,16.23 -67.97,0 -137.99,-12.83 -193.83,-53.82 -54.26,-39.83 -74.87,-98.3 -74.87,-163.88 0,-40.29 5.26,-84.51 24.51,-120.54 15.57,-29.13 36.65,-53.9 64.29,-72.14 27.2,-17.95 57.41,-29.58 89.26,-36.06 32.16,-6.53 64.75,-11.02 97.52,-12.94 45.47,-2.68 90.97,-5.26 136.43,-8.25 30.06,-1.97 62.43,-5.71 91.33,-14.55 18.4,-5.64 36.82,-14.86 48.53,-30.65 12.31,-16.58 15.16,-40.36 15.16,-60.39 0,-23.54 -2.16,-47.07 -5.87,-70.31 -3.79,-23.66 -13.06,-45.06 -27.29,-64.34 -16.19,-21.92 -39.47,-37.3 -64.04,-48.35 -34.9,-15.71 -79.32,-19.31 -117.13,-19.31 -64.6,0 -132.02,12.77 -181.96,56.59 -47.25,41.49 -67.1,98.33 -71.38,159.97l-0.7 9.95 -51.28 0 0.64 -11.29c2,-36.08 9.49,-71.3 23.29,-104.74 13.48,-32.65 33.07,-61.3 58.82,-85.47 26.98,-25.33 59,-43.56 93.64,-56.24 40.94,-15 85.55,-20.16 128.93,-20.16 33.34,0 66.64,3.31 99.16,10.77 30.67,7.04 59.23,19.57 84.32,38.67 25.21,19.17 44.46,43.72 58.6,71.98 16.76,33.54 22.74,72.36 23.63,109.53l0 490.78c0,7.99 0.94,19.65 6.43,26.04 4.88,5.7 11.25,9.03 18.47,10.83 9.53,2.39 19.4,3.12 29.19,2.7 10.57,-0.46 21.14,-1.16 31.65,-2.21l11.77 -1.17 0 52.5 -55.7 0c-22.66,0 -44.28,-5.2 -63.5,-17.42 -23.36,-14.87 -29.69,-42.2 -29.69,-68.27l0 -55.85zm-709.53 -72.82c-7.29,15.31 -16.12,29.88 -26.55,43.63 -20.94,27.57 -45.83,51.34 -74.55,70.66 -28.64,19.26 -59.85,33.7 -92.97,43.39 -32.98,9.64 -66.92,14.68 -101.27,14.68 -50.28,0 -100.51,-8.49 -145.79,-31.13 -40.4,-20.2 -75.32,-47.75 -103.34,-83.19 -28.58,-36.11 -48.66,-77.3 -61.86,-121.31 -14.07,-46.85 -20.71,-95.2 -20.71,-144.08 0,-50.64 6.57,-100.94 21.47,-149.4 13.89,-45.11 35.13,-86.9 64.93,-123.6 29.45,-36.28 65.81,-64.36 107.91,-84.65 46.25,-22.29 96.82,-31.06 147.9,-31.06 36.56,0 72.65,5.5 107.12,17.88 32.22,11.58 62.28,27.76 89.24,48.9 26.28,20.63 48.7,45.07 66.88,73.1 8.23,12.7 15.42,25.92 21.59,39.59l0 -161.47 51.37 0 0 756.23c0,87.94 -18.89,180.53 -87.62,241.27 -67.01,59.24 -157.05,76.93 -244.09,76.93 -38.33,0 -76.51,-4.28 -113.65,-13.84 -34.77,-8.93 -67.46,-23.38 -96.61,-44.43 -28.75,-20.77 -51.24,-47.29 -67.71,-78.71 -18.74,-35.72 -25.81,-76.47 -26.72,-116.48l-0.25 -10.93 51.35 0 0.27 10.41c0.84,31.96 6.74,64.33 21.99,92.73 13.39,24.94 31.4,45.97 54.51,62.33 24.1,17.07 51.15,28.62 79.7,35.87 31.3,7.94 63.37,11.67 95.62,11.67 73.71,0 152.68,-13.84 209.7,-64.08 57.38,-50.56 72.14,-129.69 72.14,-202.74l0 -178.17zm-1329.91 -165.16c1.51,44.26 7.05,88.49 18.14,131.39 10.44,40.39 26.93,78.81 51.54,112.64 23.45,32.24 53.5,56.91 89.14,74.73 41.34,20.67 88.94,27.38 134.73,27.38 71,0 138.83,-16.73 195.1,-61.44 57.79,-45.9 84.94,-113.22 95.85,-184.5l1.38 -9.07 51.25 0 -1.46 11.98c-10.41,85.19 -43.36,160.98 -110.31,216.22 -65.7,54.2 -144.28,76.12 -228.74,76.69 -53.67,0.36 -109.38,-6.45 -158.38,-29.52 -43.34,-20.39 -79.82,-49.57 -108.31,-88.07 -29.39,-39.75 -49.22,-84.96 -61.74,-132.65 -13.92,-53 -19.85,-107.73 -19.85,-162.47 0,-59.34 8.04,-119.12 29.2,-174.8 18.04,-47.51 42.97,-92.19 77.05,-130.11 31.39,-34.94 68.6,-62.49 111.66,-81.39 41.42,-18.2 85.03,-27.91 130.3,-27.91 55.44,0 110.86,9.63 160.24,35.74 43.83,23.18 81.1,54.52 110.17,94.69 29.29,40.47 49.39,85.81 61.7,134.13 13,50.95 18.07,103.55 16.08,156.06l-0.38 10.28 -644.36 0z"/>
  <path class="fil0" d="M22185.53 10912.65c4.94,-10.96 10.59,-21.61 16.98,-31.92 16.31,-26.29 36.82,-49.23 60.88,-68.68 25.37,-20.52 54.16,-35.61 85.04,-46.06 34.4,-11.65 70.7,-16.32 106.93,-16.32 38.76,0 77.27,5.52 113.86,18.63 34.05,12.2 64.68,30.56 90.78,55.6 26.68,25.58 46.14,56.5 59.57,90.82 15.3,39.1 20.99,81.36 20.99,123.16l0 522.21 -51.39 0 0 -517.71c0,-37.08 -4.44,-76.17 -18.69,-110.68 -11.62,-28.14 -27.98,-53.6 -50.57,-74.18 -21.53,-19.62 -46.37,-33.8 -74.09,-42.73 -29.31,-9.44 -59.69,-13.73 -90.46,-13.73 -40.36,0 -80.39,6.96 -116.72,25.12 -32.89,16.44 -61.24,38.81 -84.18,67.6 -23.55,29.57 -40.29,63.17 -51.4,99.24 -11.97,38.92 -17.53,79.17 -17.53,119.86l0 447.21 -51.37 0 0 -792.42 51.37 0 0 144.98z"/>
  <path class="fil3" d="M22134.08 12759.06m438.15 -128.06l95.26 0 0 128.06 -107.96 0c-24.34,0 -46.56,-3.18 -66.67,-9.53 -9.52,67.74 -35.98,121.72 -81.49,160.88 -41.27,34.92 -89.96,52.92 -147.11,52.92 -44.45,0 -87.85,-11.65 -130.18,-33.87l0 -116.42c37.04,20.11 73.03,30.69 107.95,30.69 39.16,0 68.8,-12.7 91.02,-37.04 21.17,-25.4 31.75,-60.33 31.75,-104.78l0 -342.91 86.79 -45.51 45.5 -24.35 0 1.06 1.06 -1.06 0 265.65c0,27.52 5.29,46.57 16.93,58.22 11.64,11.64 30.69,17.99 57.15,17.99z"/>
  <path class="fil3" d="M22596.36 12759.06m0 0l0 -128.06 186.27 0 0 128.06 -186.27 0z"/>
  <path class="fil3" d="M22711.49 12759.06m0 0l0 -128.06 186.27 0 0 128.06 -186.27 0z"/>
  <path class="fil3" d="M22826.63 12759.06m0 0l0 -128.06 186.27 0 0 128.06 -186.27 0z"/>
  <path class="fil3" d="M22941.77 12759.06m349.26 -564.11c-21.17,0 -38.1,-6.35 -50.8,-19.05 -12.7,-12.7 -19.05,-29.64 -19.05,-51.86 0,-20.11 6.35,-37.04 19.05,-49.74 12.7,-12.7 29.63,-19.06 50.8,-19.06 21.17,0 38.1,6.36 50.8,18 11.64,12.7 17.99,29.63 17.99,50.8 0,47.63 -23.28,70.91 -68.79,70.91zm-349.26 564.11l0 -128.06 170.4 0c-22.23,-30.7 -32.81,-68.8 -32.81,-116.42 0,-77.26 21.16,-138.65 63.5,-184.16 38.1,-39.16 87.84,-59.27 149.23,-59.27 62.44,0 111.13,20.11 146.05,60.33 30.7,34.93 46.57,79.38 46.57,135.47l0 95.25c-1.06,60.33 -19.05,109.02 -53.97,143.94 -34.93,34.93 -81.5,52.92 -140.77,52.92l-348.2 0zm409.59 -294.23c0,-46.56 -20.11,-69.85 -59.27,-69.85 -53.98,0 -81.5,38.1 -81.5,115.36 0,80.44 26.46,120.66 78.32,120.66 41.28,0 62.45,-22.23 62.45,-67.74l0 -98.43z"/>
  <path class="fil4" d="M23580.8 12759.06m301.64 -799.07c-32.81,40.22 -64.56,60.33 -96.32,60.33 -14.81,0 -38.1,-8.47 -68.79,-26.46 -17.99,-9.53 -30.69,-14.82 -39.16,-14.82l-1.06 0c-12.7,0 -29.63,12.7 -50.8,37.05l-45.51 -40.22c31.75,-41.28 63.5,-61.39 95.25,-61.39 15.88,0 39.16,8.47 70.91,26.46 16.94,9.53 29.64,14.82 39.16,14.82 11.65,0 29.64,-12.7 51.86,-37.04l44.46 41.27zm-225.44 799.07l0 -611.74 133.36 -70.91 0 682.65 -133.36 0z"/>
  <path class="fil3" d="M25983.19 11358.61m180.97 -361.93l77.07 0 0 -83.79 -77.07 0 0 -17.59c0,-36.86 0.83,-49.43 41.89,-49.43l32.67 0 0 -94.67c-10.05,-0.84 -25.97,-1.68 -60.32,-1.68 -80.43,0 -129.86,35.19 -129.86,127.35l0 36.02 -65.35 0 0 83.79 65.35 0 0 361.93 115.62 0 0 -361.93zm113.1 361.93m392.09 -324.23c0,-63.68 -30.16,-134.89 -189.34,-134.89 -167.56,1.67 -189.35,122.32 -190.18,154.99l115.61 0c5.03,-34.35 15.08,-61.16 77.08,-61.16 54.46,0 71.22,20.95 71.22,50.27 0,30.16 -25.14,34.35 -41.06,36.87l-113.1 16.75c-75.4,10.89 -122.32,63.68 -122.32,137.4 0,90.49 57.81,137.4 137.4,137.4 78.75,0 106.4,-28.48 142.43,-65.34 0,24.29 6.7,41.89 10.89,51.94l128.18 0 0 -18.43c-14.24,-4.19 -26.81,-15.92 -26.81,-69.54l0 -236.26zm-115.61 151.64c0,90.48 -75.41,103.89 -102.22,103.89 -32.67,0 -58.64,-16.76 -58.64,-55.3 0,-45.24 26.81,-59.48 80.43,-69.53l31 -5.87c23.45,-4.19 35.18,-10.89 49.43,-18.43l0 45.24zm221.18 172.59m0 0l115.61 0 0 -233.75c0,-49.43 16.76,-106.4 108.08,-106.4 10.89,0 23.46,0 33.51,1.67l0 -118.97c-7.54,-0.83 -15.08,-1.67 -22.62,-1.67 -71.21,0 -98.02,43.57 -122.32,88.81l-1.67 0 0 -75.41 -110.59 0 0 445.72z"/>
  <path class="fil4" d="M25532.45 11358.61m392.09 -324.23c0,-63.68 -30.16,-134.89 -189.34,-134.89 -167.56,1.67 -189.35,122.32 -190.18,154.99l115.61 0c5.03,-34.35 15.08,-61.16 77.08,-61.16 54.46,0 71.22,20.95 71.22,50.27 0,30.16 -25.14,34.35 -41.06,36.87l-113.1 16.75c-75.4,10.89 -122.32,63.68 -122.32,137.4 0,90.49 57.81,137.4 137.4,137.4 78.75,0 106.4,-28.48 142.43,-65.34 0,24.29 6.7,41.89 10.89,51.94l128.18 0 0 -18.43c-14.24,-4.19 -26.81,-15.92 -26.81,-69.54l0 -236.26zm-115.61 151.64c0,90.48 -75.41,103.89 -102.22,103.89 -32.67,0 -58.64,-16.76 -58.64,-55.3 0,-45.24 26.81,-59.48 80.43,-69.53l31 -5.87c23.45,-4.19 35.18,-10.89 49.43,-18.43l0 45.24z"/>
 </g>
</svg>
