<?xml version="1.0" encoding="UTF-8"?>
<!DOCTYPE svg PUBLIC "-//W3C//DTD SVG 1.1//EN" "http://www.w3.org/Graphics/SVG/1.1/DTD/svg11.dtd">
<!-- Creator: CorelDRAW 2018 (64-Bit Evaluation Version) -->
<svg xmlns="http://www.w3.org/2000/svg" xml:space="preserve" width="29mm" height="11mm" version="1.1" style="shape-rendering:geometricPrecision; text-rendering:geometricPrecision; image-rendering:optimizeQuality; fill-rule:evenodd; clip-rule:evenodd"
viewBox="0 0 2900 1100"
 xmlns:xlink="http://www.w3.org/1999/xlink">
 <defs>
  <style type="text/css">
   <![CDATA[
    .fil2 {fill:#EBECEC}
    .fil0 {fill:#00B9DD}
    .fil1 {fill:#3E4E55}
    .fil4 {fill:#00B9DD;fill-rule:nonzero}
    .fil3 {fill:#3E4E55;fill-rule:nonzero}
   ]]>
  </style>
 </defs>
 <g id="Layer_x0020_1">
  <metadata id="CorelCorpID_0Corel-Layer"/>
  <g id="_2261321952112">
   <path class="fil0" d="M2620.06 450.57c-44.84,76.05 -23.16,130.3 14.07,181.97 34.35,47.68 71.96,95.46 91.27,145.18 70.37,181.19 -174.09,321.8 -301.9,199.84 -40.23,-38.38 -67.06,-88.12 -77.55,-142.83 -38.69,-201.56 63.51,-335.54 171.81,-483.15 82.48,-112.42 167.67,-214.24 128.17,-326.63 202.78,166.62 -72.28,391.46 -156.08,530.96 -258.19,429.78 111.99,539.18 178.3,364.69 13.68,-36 9.28,-78.67 -22.22,-113.88 -45.08,-45.15 -74.26,-85.27 -93.08,-122.12 -45.16,-88.45 -9.6,-190.7 67.21,-234.03z"/>
   <path class="fil1" d="M2739.75 280.69c-0.06,0.06 -0.13,0.12 -0.19,0.18 -2.6,1.82 -4.92,4 -6.91,6.46 -84.75,82.97 -96.91,242.99 -43.9,345.71 54.7,105.99 152.02,182.04 68.73,317.6 -33.22,54.07 -89.72,85.32 -154.57,105.04 200.94,-18.32 326.15,-248.31 250.65,-426.79 -55.39,-130.91 -190.84,-177.83 -128.41,-319.57 0.39,18.37 15.4,33.14 33.87,33.14 18.7,0 33.87,-15.16 33.87,-33.87 0,-18.71 -15.17,-33.87 -33.87,-33.87 -7.18,0 -13.83,2.23 -19.31,6.04l0.04 -0.07z"/>
   <path class="fil2" d="M2485.71 1057.72c-219.57,5.3 -204.63,-77.13 -294.81,-82.38 -38.45,-2.23 -70.27,17.76 -100.14,64.08 -8.18,-70.21 4.19,-121.9 40.52,-155.85 25.99,-24.3 57.6,-35.9 88.88,-35.91 66.29,-0.01 91.87,33.75 114.46,72.43 34.62,59.29 79.8,122.07 151.09,137.63z"/>
   <path class="fil2" d="M2309.58 767.77c-17.39,-387.93 364.41,-495.9 270.79,-716.59 -4.26,-13.84 -17.14,-23.9 -32.38,-23.9 -18.7,0 -33.87,15.17 -33.87,33.88 0,18.7 15.17,33.87 33.87,33.87 9.33,0 17.77,-3.77 23.9,-9.87 -49.95,156.04 -328.81,326.72 -262.31,682.61z"/>
   <path class="fil1" d="M2604.94 776.58c-50.04,-31.54 -80.71,-90.4 -87.39,-138.2 -138.79,156.99 -28.6,336.23 65.71,233.72 -89.73,72.36 -168.65,-111.1 21.68,-95.52z"/>
  </g>
  <path class="fil3" d="M889.73 918.19c0,74.13 -27.3,120.56 -81.87,139.3 -13.04,4.48 -26.88,6.72 -41.55,6.72 -23.62,0 -46.43,-5.7 -68.42,-17.1l0 -36.05c20.77,11.4 41.95,17.11 63.54,17.11 17.1,0 32.17,-3.87 45.21,-11.61 28.51,-17.11 42.76,-49.08 42.76,-95.92l0 -213.23 40.33 -21.38 0 232.16zm208.82 29.33c-34.62,0 -61.3,-11.2 -80.04,-33.6 -15.47,-19.15 -23.21,-43.38 -23.21,-72.7l0 -266.38 40.93 -21.39 0 286.54c0,46.44 22.4,69.65 67.21,69.65l21.38 0 0 37.88 -26.27 0zm9.65 0l0 -37.88 83.09 0 0 37.88 -83.09 0zm66.47 0l0 -37.88 83.09 0 0 37.88 -83.09 0zm66.47 0l0 -37.88 83.1 0 0 37.88 -83.1 0zm66.47 0l0 -37.88 83.09 0 0 37.88 -83.09 0zm66.47 0l0 -37.88 83.1 0 0 37.88 -83.1 0zm390.89 -37.88l15.28 0 0 37.88 -20.16 0c-36.66,0 -64.15,-12.42 -82.48,-37.27 -18.33,24.85 -46.03,37.27 -83.1,37.27l-153.95 0 0 -37.88 149.68 0c44.39,0 66.59,-23.83 66.59,-71.48l0 -6.11c0,-33.4 -12.22,-58.45 -36.66,-75.15 -19.55,-13.85 -43.98,-20.77 -73.31,-20.77 -21.99,0 -43.78,3.87 -65.37,11.61l0 -40.33 138.68 -153.96 42.16 0 -125.25 141.75c4.08,-0.41 8.36,-0.61 12.83,-0.61 39.1,0 71.69,9.98 97.76,29.93 33.4,25.66 50.09,61.3 50.09,106.92l0 8.55c0,46.44 22.41,69.65 67.21,69.65zm104.96 -304.25c-16.7,0 -25.05,-8.56 -25.05,-25.66 0,-16.29 8.35,-24.44 25.05,-24.44 15.88,0 23.83,8.15 23.83,24.44 0,17.1 -7.95,25.66 -23.83,25.66zm-106.3 342.13l0 -37.88 21.38 0c44.8,0 67.2,-23.21 67.2,-69.65l0 -132.58 40.94 -21.38 0 155.19c0,34.21 -9.98,60.88 -29.94,80.03 -18.33,17.51 -42.76,26.27 -73.32,26.27l-26.26 0z"/>
  <path class="fil0" d="M1699.35 859.73c-2.89,21.22 -9.89,38.55 -20.39,52.3 18.31,23.66 45.35,35.49 81.13,35.49l20.16 0 0 -37.88 -15.28 0 0 0c-37.93,0 -59.8,-16.64 -65.62,-49.91z"/>
  <path class="fil0" d="M1869.93 605.39c-16.7,0 -25.05,-8.56 -25.05,-25.66 0,-16.29 8.35,-24.44 25.05,-24.44 15.88,0 23.83,8.15 23.83,24.44 0,17.1 -7.95,25.66 -23.83,25.66zm-106.3 342.13l0 -37.88 21.38 0c44.8,0 67.2,-23.21 67.2,-69.65l0 -132.58 40.94 -21.38 0 155.19c0,34.21 -9.98,60.88 -29.94,80.03 -18.33,17.51 -42.76,26.27 -73.32,26.27l-26.26 0z"/>
  <polygon class="fil3" points="1422.03,697.2 1544.69,556.78 1584.16,556.78 1461.68,697.2 "/>
  <path class="fil1" d="M1157.44 285.86c-3.96,3.16 -8.58,5.49 -13.39,7.21 -9.08,3.24 -18.63,5.34 -28.16,6.75 -11.19,1.66 -22.52,2.54 -33.83,2.9 -11.66,0.37 -23.31,0.92 -34.94,1.7 -11.03,0.73 -22.01,2.12 -32.87,4.21 -9.76,1.89 -19.03,5.33 -27.34,10.81 -8.11,5.35 -14.18,12.64 -18.58,21.27 -5.51,10.8 -6.97,24.14 -6.97,36.09 0,8.03 1.4,15.89 4.05,23.47 2.72,7.82 7.36,14.44 13.45,20.02 7.19,6.59 16.09,11.24 25.19,14.59 12.12,4.46 25.97,5.74 38.81,5.74 16.82,0 33.64,-2.6 49.14,-9.36 13.49,-5.88 25.82,-13.85 36.06,-24.48 9.71,-10.08 17.02,-21.72 21.94,-34.83 4.93,-13.13 7.44,-26.76 7.44,-40.79l0 -45.3zm-270.38 7.09c0,-16.28 -2.32,-32.3 -6.97,-47.9 -4.42,-14.87 -11.1,-28.8 -20.45,-41.21 -9.07,-12.03 -20.4,-21.49 -33.73,-28.51 -14.46,-7.62 -30.35,-10.65 -46.59,-10.65 -16.58,0 -33.15,2.74 -48.11,10.13 -13.56,6.68 -25.15,15.88 -34.56,27.69 -9.69,12.16 -16.54,25.96 -20.96,40.84 -4.8,16.12 -6.96,32.8 -6.96,49.61 0,16.77 2.05,33.51 6.95,49.58 4.37,14.33 10.98,27.71 20.39,39.43 9.03,11.24 20.14,19.96 33.12,26.27 14.22,6.91 29.84,9.57 45.56,9.57 16.67,0 33.32,-2.7 48.46,-9.88 13.48,-6.38 25.26,-15.14 34.85,-26.6 9.8,-11.72 16.78,-25.22 21.5,-39.72 5.12,-15.76 7.5,-32.1 7.5,-48.65zm-279.56 -3.5c-0.34,-15.53 -2.63,-30.9 -7.19,-45.8 -4.57,-14.95 -11.49,-28.89 -21.25,-41.15 -9.47,-11.87 -21.18,-21.04 -34.83,-27.68 -15.1,-7.35 -31.72,-10.14 -48.42,-10.14 -14.95,0 -29.44,2.77 -43.14,8.78 -13.53,5.93 -25.23,14.54 -35.12,25.52 -10.74,11.91 -18.74,25.83 -24.63,40.7 -6.28,15.88 -9.57,32.78 -10.85,49.77l225.43 0zm647.06 -82.2c1.8,-4.07 3.84,-8.05 6.12,-11.91 6.13,-10.42 14.24,-19.25 23.86,-26.56 10.54,-8.01 22.57,-13.74 35.17,-17.75 15.13,-4.82 31.42,-6.24 47.24,-5.9l3.98 0.09 0 19.69 -4.3 -0.24c-17.04,-0.97 -34.6,0.78 -50.28,7.91 -13.52,6.15 -25.34,14.76 -34.76,26.26 -9.42,11.49 -16.09,24.59 -20.36,38.8 -4.45,14.85 -6.67,30.11 -6.67,45.61l0 170.06 -19.54 0 0 -301.33 19.54 0 0 55.27zm-97.12 192.24c-2.46,4.48 -5.27,8.77 -8.39,12.86 -7.25,9.53 -16.15,17.57 -26.04,24.29 -10.94,7.42 -23,12.88 -35.6,16.77 -14.06,4.35 -28.72,6.18 -43.41,6.18 -25.85,0 -52.48,-4.88 -73.71,-20.47 -20.63,-15.15 -28.47,-37.38 -28.47,-62.32 0,-15.32 2,-32.14 9.32,-45.84 5.92,-11.07 13.94,-20.49 24.45,-27.43 10.34,-6.83 21.83,-11.25 33.94,-13.71 12.23,-2.49 24.62,-4.19 37.08,-4.92 17.29,-1.02 34.6,-2 51.88,-3.14 11.43,-0.75 23.74,-2.17 34.73,-5.53 7,-2.15 14,-5.65 18.46,-11.66 4.68,-6.3 5.76,-15.35 5.76,-22.96 0,-8.95 -0.82,-17.9 -2.23,-26.74 -1.44,-9 -4.97,-17.13 -10.38,-24.47 -6.15,-8.33 -15.01,-14.18 -24.35,-18.38 -13.27,-5.98 -30.16,-7.34 -44.54,-7.34 -24.57,0 -50.2,4.85 -69.19,21.51 -17.97,15.78 -25.52,37.4 -27.15,60.84l-0.26 3.78 -19.5 0 0.24 -4.29c0.76,-13.72 3.61,-27.12 8.86,-39.83 5.12,-12.42 12.57,-23.31 22.36,-32.5 10.26,-9.64 22.44,-16.57 35.61,-21.39 15.57,-5.7 32.53,-7.67 49.03,-7.67 12.68,0 25.34,1.26 37.71,4.1 11.66,2.68 22.52,7.44 32.06,14.7 9.59,7.29 16.91,16.63 22.28,27.38 6.38,12.75 8.65,27.51 8.99,41.65l0 186.62c0,3.04 0.36,7.48 2.45,9.91 1.85,2.16 4.27,3.43 7.02,4.12 3.62,0.9 7.38,1.18 11.1,1.02 4.02,-0.17 8.04,-0.44 12.03,-0.84l4.48 -0.44 0 19.96 -21.18 0c-8.62,0 -16.84,-1.98 -24.15,-6.62 -8.88,-5.66 -11.29,-16.05 -11.29,-25.96l0 -21.24zm-269.81 -27.69c-2.77,5.82 -6.13,11.36 -10.1,16.59 -7.96,10.48 -17.42,19.52 -28.35,26.87 -10.89,7.32 -22.75,12.81 -35.35,16.5 -12.54,3.66 -25.45,5.58 -38.51,5.58 -19.12,0 -38.22,-3.23 -55.44,-11.84 -15.36,-7.68 -28.64,-18.16 -39.3,-31.63 -10.86,-13.73 -18.5,-29.4 -23.52,-46.13 -5.35,-17.82 -7.87,-36.2 -7.87,-54.79 0,-19.26 2.49,-38.39 8.16,-56.81 5.28,-17.16 13.36,-33.05 24.69,-47.01 11.2,-13.79 25.03,-24.47 41.04,-32.19 17.58,-8.47 36.81,-11.81 56.24,-11.81 13.9,0 27.62,2.09 40.73,6.8 12.25,4.41 23.69,10.56 33.94,18.6 9.99,7.84 18.52,17.14 25.43,27.8 3.13,4.82 5.86,9.85 8.21,15.05l0 -61.4 19.53 0 0 287.57c0,33.44 -7.18,68.65 -33.31,91.75 -25.49,22.52 -59.73,29.25 -92.82,29.25 -14.58,0 -29.1,-1.63 -43.22,-5.26 -13.22,-3.4 -25.66,-8.89 -36.74,-16.9 -10.93,-7.9 -19.49,-17.98 -25.75,-29.93 -7.12,-13.58 -9.81,-29.08 -10.16,-44.29l-0.09 -4.16 19.52 0 0.11 3.96c0.31,12.15 2.56,24.46 8.36,35.26 5.09,9.49 11.94,17.48 20.73,23.7 9.16,6.5 19.45,10.89 30.3,13.64 11.91,3.02 24.1,4.44 36.36,4.44 28.03,0 58.06,-5.26 79.75,-24.37 21.82,-19.22 27.43,-49.31 27.43,-77.09l0 -67.75zm-505.72 -62.81c0.57,16.83 2.68,33.65 6.89,49.96 3.97,15.36 10.24,29.97 19.6,42.84 8.92,12.26 20.35,21.64 33.9,28.42 15.72,7.86 33.82,10.41 51.23,10.41 27,0 52.8,-6.36 74.19,-23.37 21.98,-17.45 32.3,-43.05 36.45,-70.16l0.53 -3.44 19.49 0 -0.56 4.55c-3.96,32.4 -16.49,61.22 -41.95,82.22 -24.98,20.61 -54.86,28.95 -86.98,29.17 -20.41,0.13 -41.59,-2.46 -60.23,-11.23 -16.48,-7.75 -30.35,-18.85 -41.18,-33.49 -11.18,-15.12 -18.72,-32.31 -23.48,-50.44 -5.29,-20.16 -7.55,-40.97 -7.55,-61.79 0,-22.56 3.06,-45.29 11.1,-66.47 6.87,-18.06 16.35,-35.05 29.3,-49.47 11.94,-13.29 26.09,-23.77 42.47,-30.95 15.75,-6.92 32.33,-10.62 49.54,-10.62 21.09,0 42.16,3.66 60.94,13.59 16.67,8.82 30.84,20.74 41.89,36.01 11.14,15.39 18.78,32.63 23.47,51.01 4.94,19.37 6.87,39.37 6.11,59.34l-0.14 3.91 -245.03 0z"/>
  <path class="fil0" d="M113.69 207.11c1.88,-4.17 4.03,-8.22 6.46,-12.14 6.2,-10 14,-18.72 23.15,-26.12 9.65,-7.8 20.6,-13.54 32.34,-17.51 13.08,-4.43 26.89,-6.21 40.66,-6.21 14.75,0 29.39,2.1 43.3,7.09 12.95,4.64 24.6,11.62 34.52,21.14 10.15,9.73 17.55,21.49 22.66,34.54 5.82,14.86 7.98,30.94 7.98,46.83l0 198.58 -19.54 0 0 -196.87c0,-14.1 -1.69,-28.96 -7.11,-42.09 -4.42,-10.7 -10.64,-20.38 -19.23,-28.2 -8.19,-7.47 -17.63,-12.86 -28.17,-16.25 -11.15,-3.59 -22.71,-5.22 -34.41,-5.22 -15.35,0 -30.57,2.64 -44.38,9.55 -12.51,6.25 -23.29,14.76 -32.01,25.7 -8.96,11.25 -15.32,24.03 -19.55,37.74 -4.55,14.8 -6.67,30.11 -6.67,45.58l0 170.06 -19.53 0 0 -301.33 19.53 0 0 55.13z"/>
  <path class="fil3" d="M94.13 909.24m166.62 -48.69l36.22 0 0 48.69 -41.05 0c-9.26,0 -17.71,-1.21 -25.35,-3.62 -3.63,25.76 -13.69,46.28 -31,61.18 -15.69,13.28 -34.2,20.12 -55.94,20.12 -16.9,0 -33.4,-4.43 -49.5,-12.88l0 -44.27c14.08,7.65 27.77,11.67 41.05,11.67 14.89,0 26.16,-4.83 34.61,-14.09 8.05,-9.65 12.08,-22.94 12.08,-39.84l0 -130.4 33 -17.3 17.3 -9.26 0 0.4 0.41 -0.4 0 101.01c0,10.47 2.01,17.71 6.44,22.14 4.42,4.43 11.67,6.85 21.73,6.85z"/>
  <path class="fil3" d="M269.92 909.24m0 0l0 -48.69 70.84 0 0 48.69 -70.84 0z"/>
  <path class="fil3" d="M313.7 909.24m0 0l0 -48.69 70.84 0 0 48.69 -70.84 0z"/>
  <path class="fil3" d="M357.49 909.24m0 0l0 -48.69 70.83 0 0 48.69 -70.83 0z"/>
  <path class="fil3" d="M401.27 909.24m132.82 -214.51c-8.05,0 -14.49,-2.42 -19.32,-7.25 -4.83,-4.82 -7.25,-11.27 -7.25,-19.72 0,-7.64 2.42,-14.08 7.25,-18.91 4.83,-4.83 11.27,-7.25 19.32,-7.25 8.05,0 14.48,2.42 19.31,6.85 4.43,4.83 6.84,11.26 6.84,19.31 0,18.12 -8.85,26.97 -26.15,26.97zm-132.82 214.51l0 -48.69 64.8 0c-8.45,-11.68 -12.48,-26.17 -12.48,-44.28 0,-29.38 8.05,-52.72 24.15,-70.03 14.49,-14.89 33.4,-22.53 56.75,-22.53 23.74,0 42.26,7.64 55.54,22.94 11.67,13.28 17.71,30.18 17.71,51.51l0 36.22c-0.41,22.94 -7.25,41.46 -20.53,54.74 -13.28,13.28 -30.99,20.12 -53.53,20.12l-132.41 0zm155.76 -111.88c0,-17.71 -7.65,-26.57 -22.54,-26.57 -20.53,0 -30.99,14.49 -30.99,43.87 0,30.59 10.06,45.89 29.78,45.89 15.7,0 23.75,-8.46 23.75,-25.76l0 -37.43z"/>
  <path class="fil4" d="M644.28 909.24m114.7 -303.86c-12.48,15.3 -24.55,22.94 -36.63,22.94 -5.63,0 -14.48,-3.22 -26.16,-10.06 -6.84,-3.62 -11.67,-5.64 -14.89,-5.64l-0.4 0c-4.83,0 -11.27,4.83 -19.32,14.09l-17.3 -15.29c12.07,-15.7 24.14,-23.35 36.22,-23.35 6.04,0 14.89,3.23 26.96,10.07 6.44,3.62 11.27,5.63 14.89,5.63 4.43,0 11.27,-4.83 19.72,-14.08l16.91 15.69zm-85.73 303.86l0 -232.62 50.72 -26.97 0 259.59 -50.72 0z"/>
  <path class="fil3" d="M1557.83 376.69m68.82 -137.63l29.31 0 0 -31.86 -29.31 0 0 -6.69c0,-14.02 0.31,-18.8 15.93,-18.8l12.42 0 0 -36c-3.82,-0.31 -9.87,-0.63 -22.94,-0.63 -30.58,0 -49.38,13.38 -49.38,48.42l0 13.7 -24.85 0 0 31.86 24.85 0 0 137.63 43.97 0 0 -137.63zm43.01 137.63m149.1 -123.29c0,-24.22 -11.47,-51.3 -72,-51.3 -63.72,0.64 -72.01,46.52 -72.32,58.94l43.96 0c1.91,-13.06 5.74,-23.25 29.31,-23.25 20.71,0 27.08,7.96 27.08,19.11 0,11.47 -9.56,13.06 -15.61,14.02l-43.01 6.37c-28.67,4.14 -46.51,24.22 -46.51,52.25 0,34.41 21.98,52.25 52.25,52.25 29.94,0 40.46,-10.83 54.16,-24.85 0,9.24 2.55,15.93 4.14,19.75l48.74 0 0 -7c-5.41,-1.6 -10.19,-6.06 -10.19,-26.45l0 -89.84zm-43.97 57.66c0,34.41 -28.67,39.51 -38.87,39.51 -12.42,0 -22.3,-6.37 -22.3,-21.03 0,-17.2 10.2,-22.62 30.59,-26.44l11.79 -2.23c8.92,-1.59 13.38,-4.14 18.79,-7.01l0 17.2zm84.11 65.63m0 0l43.97 0 0 -88.88c0,-18.8 6.37,-40.46 41.09,-40.46 4.15,0 8.93,0 12.75,0.63l0 -45.24c-2.87,-0.32 -5.74,-0.64 -8.6,-0.64 -27.08,0 -37.28,16.57 -46.52,33.78l-0.63 0 0 -28.68 -42.06 0 0 169.49z"/>
  <path class="fil4" d="M1386.43 376.69m149.1 -123.29c0,-24.22 -11.47,-51.3 -72,-51.3 -63.72,0.64 -72.01,46.52 -72.32,58.94l43.96 0c1.91,-13.06 5.74,-23.25 29.31,-23.25 20.71,0 27.09,7.96 27.09,19.11 0,11.47 -9.56,13.06 -15.62,14.02l-43.01 6.37c-28.67,4.14 -46.51,24.22 -46.51,52.25 0,34.41 21.98,52.25 52.25,52.25 29.94,0 40.46,-10.83 54.16,-24.85 0,9.24 2.55,15.93 4.14,19.75l48.74 0 0 -7c-5.41,-1.6 -10.19,-6.06 -10.19,-26.45l0 -89.84zm-43.96 57.66c0,34.41 -28.68,39.51 -38.88,39.51 -12.42,0 -22.29,-6.37 -22.29,-21.03 0,-17.2 10.19,-22.62 30.58,-26.44l11.79 -2.23c8.92,-1.59 13.38,-4.14 18.8,-7.01l0 17.2z"/>
 </g>
</svg>
